# xmcd CD database file
#
# Track frame offsets:
#	150
#	23742
#	49543
#	77138
#	92360
#	114183
#	145746
#	171056
#
# Disc length: 2524 seconds
#
# Revision: 0
# Processed by: cddbd v1.5.2PL0 Copyright (c) Steve Scherf et al.
# Submitted via: CDex 2.00
#
DISCID=5109da08
DTITLE=Andy Nowak Trio - Sorrow And The Phoenix
DYEAR=2016
DGENRE=Jazz
TTITLE0=First Light
TTITLE1=(We've Got To) Bring It Down
TTITLE2=Falling
TTITLE3=So Far Away
TTITLE4=Raining In Bristol
TTITLE5=In The Leaving
TTITLE6=Stop
TTITLE7=Sorrow And The Phoenix
EXTD=YEAR: 2016
EXTT0=
EXTT1=
EXTT2=
EXTT3=
EXTT4=
EXTT5=
EXTT6=
EXTT7=
PLAYORDER=
